<mxfile host="app.diagrams.net" modified="2023-12-21T07:08:19.529Z" agent="Mozilla/5.0 (Windows NT 10.0; Win64; x64) AppleWebKit/537.36 (KHTML, like Gecko) Chrome/120.0.0.0 Safari/537.36 Edg/120.0.0.0" etag="AXRHNxNmNix8yyIm2aIK" version="22.1.11" type="github">
  <diagram id="C5RBs43oDa-KdzZeNtuy" name="Page-1">
    <mxGraphModel dx="2283" dy="705" grid="1" gridSize="10" guides="1" tooltips="1" connect="1" arrows="1" fold="1" page="1" pageScale="1" pageWidth="827" pageHeight="1169" math="0" shadow="0">
      <root>
        <mxCell id="WIyWlLk6GJQsqaUBKTNV-0" />
        <mxCell id="WIyWlLk6GJQsqaUBKTNV-1" parent="WIyWlLk6GJQsqaUBKTNV-0" />
        <mxCell id="egl9fIb3DE0RigYNLPV_-0" value="입출고 담당자" style="shape=umlActor;verticalLabelPosition=bottom;verticalAlign=top;html=1;" vertex="1" parent="WIyWlLk6GJQsqaUBKTNV-1">
          <mxGeometry x="-520" y="350" width="30" height="60" as="geometry" />
        </mxCell>
        <mxCell id="egl9fIb3DE0RigYNLPV_-3" value="현황 관리 담당자" style="shape=umlActor;verticalLabelPosition=bottom;verticalAlign=top;html=1;" vertex="1" parent="WIyWlLk6GJQsqaUBKTNV-1">
          <mxGeometry x="-550" y="690" width="30" height="60" as="geometry" />
        </mxCell>
        <mxCell id="egl9fIb3DE0RigYNLPV_-4" value="쇼핑몰 시스템" style="shape=umlActor;verticalLabelPosition=bottom;verticalAlign=top;html=1;" vertex="1" parent="WIyWlLk6GJQsqaUBKTNV-1">
          <mxGeometry x="-110" y="740" width="30" height="60" as="geometry" />
        </mxCell>
        <mxCell id="egl9fIb3DE0RigYNLPV_-7" value="신제품 입고" style="ellipse;whiteSpace=wrap;html=1;" vertex="1" parent="WIyWlLk6GJQsqaUBKTNV-1">
          <mxGeometry x="-440" y="340" width="120" height="40" as="geometry" />
        </mxCell>
        <mxCell id="egl9fIb3DE0RigYNLPV_-8" value="고객 반품 입고" style="ellipse;whiteSpace=wrap;html=1;" vertex="1" parent="WIyWlLk6GJQsqaUBKTNV-1">
          <mxGeometry x="-440" y="280" width="120" height="40" as="geometry" />
        </mxCell>
        <mxCell id="egl9fIb3DE0RigYNLPV_-9" value="현황 조회" style="ellipse;whiteSpace=wrap;html=1;" vertex="1" parent="WIyWlLk6GJQsqaUBKTNV-1">
          <mxGeometry x="-440" y="650" width="120" height="40" as="geometry" />
        </mxCell>
        <mxCell id="egl9fIb3DE0RigYNLPV_-10" value="업체 반품 출고" style="ellipse;whiteSpace=wrap;html=1;" vertex="1" parent="WIyWlLk6GJQsqaUBKTNV-1">
          <mxGeometry x="-440" y="400" width="120" height="40" as="geometry" />
        </mxCell>
        <mxCell id="egl9fIb3DE0RigYNLPV_-11" value="납품 업체 주문" style="ellipse;whiteSpace=wrap;html=1;" vertex="1" parent="WIyWlLk6GJQsqaUBKTNV-1">
          <mxGeometry x="-440" y="710" width="120" height="40" as="geometry" />
        </mxCell>
        <mxCell id="egl9fIb3DE0RigYNLPV_-12" value="현황 반영" style="ellipse;whiteSpace=wrap;html=1;" vertex="1" parent="WIyWlLk6GJQsqaUBKTNV-1">
          <mxGeometry x="-440" y="770" width="120" height="40" as="geometry" />
        </mxCell>
        <mxCell id="egl9fIb3DE0RigYNLPV_-13" value="상품 출고" style="ellipse;whiteSpace=wrap;html=1;" vertex="1" parent="WIyWlLk6GJQsqaUBKTNV-1">
          <mxGeometry x="-440" y="460" width="120" height="40" as="geometry" />
        </mxCell>
        <mxCell id="egl9fIb3DE0RigYNLPV_-14" value="현황 등록" style="ellipse;whiteSpace=wrap;html=1;" vertex="1" parent="WIyWlLk6GJQsqaUBKTNV-1">
          <mxGeometry x="-170" y="370" width="120" height="40" as="geometry" />
        </mxCell>
        <mxCell id="egl9fIb3DE0RigYNLPV_-44" value="" style="endArrow=none;html=1;rounded=0;" edge="1" parent="WIyWlLk6GJQsqaUBKTNV-1">
          <mxGeometry width="50" height="50" relative="1" as="geometry">
            <mxPoint x="-480" y="690" as="sourcePoint" />
            <mxPoint x="-440" y="670" as="targetPoint" />
          </mxGeometry>
        </mxCell>
        <mxCell id="egl9fIb3DE0RigYNLPV_-46" value="" style="endArrow=none;html=1;rounded=0;entryX=0;entryY=0.5;entryDx=0;entryDy=0;" edge="1" parent="WIyWlLk6GJQsqaUBKTNV-1" target="egl9fIb3DE0RigYNLPV_-11">
          <mxGeometry width="50" height="50" relative="1" as="geometry">
            <mxPoint x="-480" y="730" as="sourcePoint" />
            <mxPoint x="-450" y="720" as="targetPoint" />
          </mxGeometry>
        </mxCell>
        <mxCell id="egl9fIb3DE0RigYNLPV_-48" value="" style="endArrow=none;html=1;rounded=0;" edge="1" parent="WIyWlLk6GJQsqaUBKTNV-1">
          <mxGeometry width="50" height="50" relative="1" as="geometry">
            <mxPoint x="-460" y="330" as="sourcePoint" />
            <mxPoint x="-440" y="300" as="targetPoint" />
          </mxGeometry>
        </mxCell>
        <mxCell id="egl9fIb3DE0RigYNLPV_-49" value="" style="endArrow=none;html=1;rounded=0;entryX=0;entryY=0.5;entryDx=0;entryDy=0;" edge="1" parent="WIyWlLk6GJQsqaUBKTNV-1" target="egl9fIb3DE0RigYNLPV_-12">
          <mxGeometry width="50" height="50" relative="1" as="geometry">
            <mxPoint x="-480" y="770" as="sourcePoint" />
            <mxPoint x="-440" y="750" as="targetPoint" />
          </mxGeometry>
        </mxCell>
        <mxCell id="egl9fIb3DE0RigYNLPV_-50" value="" style="endArrow=none;html=1;rounded=0;" edge="1" parent="WIyWlLk6GJQsqaUBKTNV-1">
          <mxGeometry width="50" height="50" relative="1" as="geometry">
            <mxPoint x="-460" y="370" as="sourcePoint" />
            <mxPoint x="-440" y="360" as="targetPoint" />
          </mxGeometry>
        </mxCell>
        <mxCell id="egl9fIb3DE0RigYNLPV_-52" value="" style="endArrow=none;html=1;rounded=0;" edge="1" parent="WIyWlLk6GJQsqaUBKTNV-1">
          <mxGeometry width="50" height="50" relative="1" as="geometry">
            <mxPoint x="-460" y="420" as="sourcePoint" />
            <mxPoint x="-440" y="420" as="targetPoint" />
          </mxGeometry>
        </mxCell>
        <mxCell id="egl9fIb3DE0RigYNLPV_-53" value="" style="endArrow=none;html=1;rounded=0;" edge="1" parent="WIyWlLk6GJQsqaUBKTNV-1">
          <mxGeometry width="50" height="50" relative="1" as="geometry">
            <mxPoint x="-460" y="450" as="sourcePoint" />
            <mxPoint x="-440" y="480" as="targetPoint" />
          </mxGeometry>
        </mxCell>
        <mxCell id="egl9fIb3DE0RigYNLPV_-54" value="" style="endArrow=none;html=1;rounded=0;" edge="1" parent="WIyWlLk6GJQsqaUBKTNV-1">
          <mxGeometry width="50" height="50" relative="1" as="geometry">
            <mxPoint x="-320" y="790" as="sourcePoint" />
            <mxPoint x="-120" y="790" as="targetPoint" />
          </mxGeometry>
        </mxCell>
      </root>
    </mxGraphModel>
  </diagram>
</mxfile>
